# xmcd
#
# Track frame offsets:
#	150
#	22563
#	39427
#	55412
#	73305
#	90058
#	114025
#	134129
#	153473
#	168208
#
# Disc length: 2515 seconds
#
# Revision: 0
# Processed by: cddbd v1.5.1PL0 Copyright (c) Steve Scherf et al.
# Submitted via: audiograbber 1.81.03
#
DISCID=7309d10a
DTITLE=James 'Blood' Ulmer - Are You Glad To Be In America (LP)
DYEAR=1980
DGENRE=Blues
TTITLE0=Layout
TTITLE1=Pressure
TTITLE2=Interview
TTITLE3=Jazz Is The Teacher (Funk Is The Preacher)
TTITLE4=See-Trough
TTITLE5=Time Out
TTITLE6=T.v. Blues
TTITLE7=Light Eyed
TTITLE8=Revelation March
TTITLE9=Are You Glad To Be In America
EXTD=
EXTT0=
EXTT1=
EXTT2=
EXTT3=
EXTT4=
EXTT5=
EXTT6=
EXTT7=
EXTT8=
EXTT9=
PLAYORDER=
